<svg id="Слой_1" data-name="Слой 1" xmlns="http://www.w3.org/2000/svg" viewBox="0 0 186.34 33.69"><defs><style>.cls-1{fill:#56595a;}.cls-2{fill:#009f5b;}.cls-3{fill:#535659;}</style></defs><title>logo_вікна-steko (2)</title><path class="cls-1" d="M759.91,442.49h-2.16v-1.8h2v-.5h-2v-1.57h2.16v-.5h-2.72V443h2.72v-.51Zm5.8-4.38h-.57v2.08h-2.57v-2.08H762V443h.57v-2.3h2.57V443h.57v-4.88Zm5.07,4.38h-2.15v-1.8h2v-.5h-2v-1.57h2.15v-.5h-2.72V443h2.72v-.51Zm3.35-4.38h-1.27V443h.57v-1.92H774a2.28,2.28,0,0,0,1.45-.4,1.37,1.37,0,0,0,.51-1.14q0-1.42-1.83-1.42Zm-.7.49h.63a1.66,1.66,0,0,1,1,.24.84.84,0,0,1,.32.72.9.9,0,0,1-.34.78,1.89,1.89,0,0,1-1.09.24h-.51v-2Zm4.56-.49V443h.57v-4.37h2.15v-.51Zm8.21.59a2.08,2.08,0,0,0-1.64-.67,2.13,2.13,0,0,0-1.67.66,2.68,2.68,0,0,0-.59,1.85,2.71,2.71,0,0,0,.59,1.86,2.11,2.11,0,0,0,1.67.66,2.09,2.09,0,0,0,1.65-.67,3.17,3.17,0,0,0,0-3.69Zm-2.88.35a1.51,1.51,0,0,1,1.23-.51,1.48,1.48,0,0,1,1.22.51,2.93,2.93,0,0,1,0,3,1.73,1.73,0,0,1-2.45,0,2.32,2.32,0,0,1-.42-1.5,2.29,2.29,0,0,1,.42-1.49Zm8-.68a1.89,1.89,0,0,0-1.18-.33,3,3,0,0,0-.87.13,2.47,2.47,0,0,0-.76.38l.28.38a2.73,2.73,0,0,1,.69-.33,2.46,2.46,0,0,1,.67-.08,1.15,1.15,0,0,1,.73.21.69.69,0,0,1,.27.57.78.78,0,0,1-.38.69,1.93,1.93,0,0,1-1.06.25H789v.48h.73a2.18,2.18,0,0,1,1.12.23.75.75,0,0,1,.38.68.84.84,0,0,1-.34.72,1.67,1.67,0,0,1-1,.25,3.27,3.27,0,0,1-.72-.08,3.23,3.23,0,0,1-.69-.24v.53a3.21,3.21,0,0,0,1.4.26,2.37,2.37,0,0,0,1.44-.38,1.25,1.25,0,0,0,.51-1.07,1,1,0,0,0-.31-.79,1.64,1.64,0,0,0-.93-.38v0a1.47,1.47,0,0,0,.84-.38,1.14,1.14,0,0,0-.12-1.67Zm5.55,2.41a1.18,1.18,0,0,0-.6-.44,3.09,3.09,0,0,0-1-.15h-.76v-1.58h2.31v-.5h-2.88V443h1.43a2.05,2.05,0,0,0,1.31-.35,1.3,1.3,0,0,0,.43-1.08,1.4,1.4,0,0,0-.19-.79Zm-2.41-.09h.69a1.92,1.92,0,0,1,1,.2.76.76,0,0,1,.29.67.84.84,0,0,1-.29.71,1.56,1.56,0,0,1-.92.22h-.8V440.7Zm7.35,1.79h-2.16v-1.8h2v-.5h-2v-1.57h2.16v-.5h-2.72V443h2.72v-.51Zm3.35-4.38h-1.27V443h.57v-1.92H805a2.28,2.28,0,0,0,1.45-.4,1.36,1.36,0,0,0,.51-1.14q0-1.42-1.83-1.42Zm-.7.49h.63a1.66,1.66,0,0,1,1,.24.84.84,0,0,1,.32.72.9.9,0,0,1-.34.78,1.89,1.89,0,0,1-1.09.24h-.51v-2Zm7.28,3.89h-2.15v-1.8h2v-.5h-2v-1.57h2.15v-.5H809V443h2.72v-.51Zm1.42.51h.66l1.94-2.48V443h.55v-2.48l1.95,2.48h.65l-2-2.52,1.92-2.37h-.63l-1.9,2.37v-2.37h-.55v2.37l-1.9-2.37h-.63l1.92,2.37-2,2.51Zm10.17-.51h-2.15v-1.8h2v-.5h-2v-1.57h2.15v-.5H820.6V443h2.72v-.51Zm5.8-4.38h-.57v2.08H826v-2.08h-.57V443H826v-2.3h2.57V443h.57v-4.88Zm6.05,0h-.57v2.08H832v-2.08h-.57V443H832v-2.3h2.57V443h.57v-4.88ZM840,441v2h.57v-4.88h-1.34a2.21,2.21,0,0,0-1.37.35,1.2,1.2,0,0,0-.45,1,1.48,1.48,0,0,0,.24.87,1.45,1.45,0,0,0,.78.52L837,443h.67l1.28-2Zm0-.49h-.74q-1.27,0-1.27-1a.76.76,0,0,1,.32-.69,1.68,1.68,0,0,1,.93-.21H840v1.87Z" transform="translate(-757 -409.39)"/><path class="cls-1" d="M855.6,442.49h-2.15v-1.8h2v-.5h-2v-1.57h2.15v-.5h-2.72V443h2.72v-.51Zm4.68-2,2.16-2.37h-.65l-2.2,2.37v-2.37H859V443h.57v-2.48l2.26,2.48h.69l-2.25-2.51Zm8.91-1.78a2.08,2.08,0,0,0-1.64-.67,2.13,2.13,0,0,0-1.67.66,2.68,2.68,0,0,0-.59,1.85,2.72,2.72,0,0,0,.59,1.86,2.11,2.11,0,0,0,1.67.66,2.08,2.08,0,0,0,1.65-.67,3.17,3.17,0,0,0,0-3.69Zm-2.88.35a1.51,1.51,0,0,1,1.23-.51,1.48,1.48,0,0,1,1.22.51,2.93,2.93,0,0,1,0,3,1.73,1.73,0,0,1-2.45,0,2.32,2.32,0,0,1-.42-1.5,2.3,2.3,0,0,1,.42-1.49Zm10.37-.94h-2.63q-.19,1.47-.34,2.47a13.18,13.18,0,0,1-.26,1.36,1.32,1.32,0,0,1-.23.5.4.4,0,0,1-.31.14.85.85,0,0,1-.38-.09V443a1.12,1.12,0,0,0,.44.08.84.84,0,0,0,.67-.28,2.36,2.36,0,0,0,.41-1q.16-.74.36-2.34l.1-.8h1.59V443h.57v-4.88Zm7.33.59a2.08,2.08,0,0,0-1.64-.67,2.12,2.12,0,0,0-1.67.66,2.68,2.68,0,0,0-.59,1.85,2.71,2.71,0,0,0,.59,1.86,2.11,2.11,0,0,0,1.67.66,2.08,2.08,0,0,0,1.65-.67,3.17,3.17,0,0,0,0-3.69Zm-2.88.35a1.51,1.51,0,0,1,1.23-.51,1.48,1.48,0,0,1,1.22.51,2.93,2.93,0,0,1,0,3,1.73,1.73,0,0,1-2.45,0,2.32,2.32,0,0,1-.42-1.5,2.29,2.29,0,0,1,.42-1.49Zm6.89-.94V443h.57v-4.37h2.16v-.51Zm6.46,4.88v-4.88h-.57V443Zm7.09-4.88H901v2.39a6.28,6.28,0,0,1-.86.23,3.85,3.85,0,0,1-.62,0,1,1,0,0,1-.69-.19.77.77,0,0,1-.21-.6v-1.87h-.57v1.94a1.13,1.13,0,0,0,.37.92,1.6,1.6,0,0,0,1.06.32,3.57,3.57,0,0,0,.68-.07A6,6,0,0,0,901,441v2h.57v-4.88Zm7.38,0h-.57v2.08h-2.57v-2.08h-.57V443h.57v-2.3h2.57V443H909v-4.88ZM913.2,443v-4.88h-.57V443Zm6.88-4.19.24-.49A3,3,0,0,0,919,438a2.47,2.47,0,0,0-1.25.31,2,2,0,0,0-.81.88,2.92,2.92,0,0,0-.28,1.32,2.7,2.7,0,0,0,.59,1.86,2.12,2.12,0,0,0,1.67.65,3.59,3.59,0,0,0,1.25-.19v-.5a4.35,4.35,0,0,1-1.17.18,1.6,1.6,0,0,1-1.28-.52,2.21,2.21,0,0,1-.45-1.48,2.16,2.16,0,0,1,.47-1.47,1.59,1.59,0,0,1,1.27-.54,2.6,2.6,0,0,1,1.11.26Zm5-.19h1.55v-.5h-3.66v.5h1.55V443H925v-4.38Zm7.52,1.93a2.23,2.23,0,0,0-1.36-.35h-1v-2.08h-.57V443h1.63a2,2,0,0,0,1.29-.37,1.28,1.28,0,0,0,.45-1.05,1.2,1.2,0,0,0-.47-1Zm-2.33.15h.9a1.82,1.82,0,0,1,1,.21.74.74,0,0,1,.31.66q0,.93-1.22.93h-1V440.7Z" transform="translate(-757 -409.39)"/><path class="cls-2" d="M846,438.66a.71.71,0,0,1,.48-.16.64.64,0,0,1,.46.16.55.55,0,0,1,.17.42.76.76,0,0,1-.17.49,2.16,2.16,0,0,1-.6.46,2.59,2.59,0,0,1-.41-.5.87.87,0,0,1-.12-.44.54.54,0,0,1,.19-.43Zm-.36,3.68a.79.79,0,0,1-.26-.62,1,1,0,0,1,.07-.39,1,1,0,0,1,.23-.32,3.29,3.29,0,0,1,.52-.37l1.46,1.42a1.85,1.85,0,0,1-1.34.51,1,1,0,0,1-.69-.23Zm-.44.37a1.61,1.61,0,0,0,1.11.35,2.37,2.37,0,0,0,1.71-.66l.62.59h.77l-1-1a3.2,3.2,0,0,0,.68-1.45h-.56a4.34,4.34,0,0,1-.19.61,1.63,1.63,0,0,1-.3.49l-1.36-1.31a2.59,2.59,0,0,0,.75-.61,1.08,1.08,0,0,0,.23-.66,1,1,0,0,0-.31-.78,1.23,1.23,0,0,0-.85-.28,1.36,1.36,0,0,0-.91.28,1,1,0,0,0-.33.78,1.15,1.15,0,0,0,.06.37,1.62,1.62,0,0,0,.16.34,3.9,3.9,0,0,0,.39.48,2.51,2.51,0,0,0-.83.67,1.31,1.31,0,0,0-.23.77,1.25,1.25,0,0,0,.4,1Z" transform="translate(-757 -409.39)"/><path class="cls-2" d="M898.77,427.25s.38-4.47-1.56-6.88-4.23-2.91-7.43-2.91c-3.59,0-8,2.29-8.49,6.44-.57,4.5,1.14,9,6,9.84a15.1,15.1,0,0,0,2.86.18v-3.5s-2.7.2-3-3.17Zm-5.88-2.94H887.1s0-3.32,2.9-3.32,2.89,3.32,2.89,3.32Z" transform="translate(-757 -409.39)"/><path class="cls-2" d="M933.93,420.1a2.21,2.21,0,0,1-1.69-.66,7.47,7.47,0,0,1,.58-2.59,3.63,3.63,0,0,1,.94-1.28,8.4,8.4,0,0,1,1.23-.95,7.81,7.81,0,0,1,1.71-.78l1.1-.36a10,10,0,0,0,1.56-.58,18.26,18.26,0,0,0,1.86-1,19.79,19.79,0,0,1-2,.77,10.65,10.65,0,0,1-1.57.41c-.5.11-.92.22-1.15.29a7.49,7.49,0,0,0-4.34,3.17,7.35,7.35,0,0,0-.61,1.79,1.31,1.31,0,0,1-.77-.92,4.8,4.8,0,0,1,2.78-5c2.86-1.47,6.06-1.18,7.59-1.61a3.76,3.76,0,0,0,2.14-1.41s-1.27,10-9.41,10.71Z" transform="translate(-757 -409.39)"/><path class="cls-3" d="M858.18,428.58h-5.49s.38,5.35,8,5.35,7.85-4.21,7.85-5.52-1.11-5.11-6.6-5.11c-4.1,0-3.75-1.66-3.75-1.66s.18-1,1.86-1,2.44,1,2.44,1.57h8.92v6.74s-.32,5,4,5,5.14-.41,5.14-.41l-.38-4.1s-3,1.48-3-1v-6.16h3.23v-4.75h-3.17v-5.71l-5.84,3.11v2.58h-11s-7.41-.29-7.41,4.8c0,4.71,6,5,7.21,5.17,1.66.15,2.94.59,2.94,1.74,0,1.45-2.3,1.39-2.3,1.39s-2.65,0-2.65-2Z" transform="translate(-757 -409.39)"/><polygon class="cls-3" points="35.87 2.54 35.87 13.69 40.72 8.04 47.99 8.04 42.02 13.98 47.99 24.21 41.33 24.21 38.09 17.88 35.87 20.09 35.87 24.21 29.83 24.21 29.83 5.7 35.87 2.54 35.87 2.54"/><path class="cls-3" d="M767,423.19a2.24,2.24,0,0,1-1.34.33h-3v-2.42h3.21q1.56,0,1.56,1.27a1,1,0,0,1-.44.83M765.73,430h-3.08V427h3.14a2.83,2.83,0,0,1,1.5.33,1.18,1.18,0,0,1,.52,1.08q0,1.51-2.08,1.51m5.55-11.48a10.88,10.88,0,0,0-5.33-1h-9V433.6h8.92q7.63,0,7.63-4.62a3.55,3.55,0,0,0-.94-2.55,4.25,4.25,0,0,0-2.71-1.19v-.11a3.84,3.84,0,0,0,2.3-1.17,3.36,3.36,0,0,0,.84-2.34,3.4,3.4,0,0,0-1.76-3.15" transform="translate(-757 -409.39)"/><polygon class="cls-2" points="25.52 8.05 19.87 8.05 19.87 24.21 25.52 24.21 25.52 8.05 25.52 8.05"/><polygon class="cls-3" points="50.23 8.05 50.23 24.21 55.88 24.21 55.88 18.02 60.36 18.02 60.36 24.21 66.02 24.21 66.02 23.76 66.02 8.05 60.36 8.05 60.36 13.87 55.88 13.87 55.88 8.05 50.23 8.05 50.23 8.05"/><path class="cls-3" d="M831,428.56q0-1.89,2.74-2l1.28-.06v1.24a2.08,2.08,0,0,1-.72,1.64,2.53,2.53,0,0,1-1.73.63q-1.58,0-1.58-1.46m9.56,5.05V423.18a5.38,5.38,0,0,0-1.7-4.24,7,7,0,0,0-4.8-1.52,15.64,15.64,0,0,0-7.11,1.43l1.61,3.62a11.86,11.86,0,0,1,4.48-1.18,1.74,1.74,0,0,1,2,2v.22l-2.69.08a9.91,9.91,0,0,0-5.19,1.4,4.29,4.29,0,0,0-1.79,3.78,5.21,5.21,0,0,0,1.31,3.79,4.77,4.77,0,0,0,3.58,1.35,7.66,7.66,0,0,0,3-.51,6.32,6.32,0,0,0,2.29-1.88h.11l1.07,2.1Z" transform="translate(-757 -409.39)"/><path class="cls-2" d="M779.64,416.5q2.88,0,2.88-2.34a2.21,2.21,0,0,0-.69-1.77,4.33,4.33,0,0,0-4.37,0,2.23,2.23,0,0,0-.67,1.78q0,2.34,2.85,2.34" transform="translate(-757 -409.39)"/><path class="cls-2" d="M933.62,425.56c0-4.81-3.45-8.14-8.62-8.14s-8.73,3-8.73,8.33c0,5.15,3.89,8.17,8.56,8.17s8.79-2.33,8.79-8.37Zm-5.83.11c0,2.82-1.42,4.21-2.84,4.21S922,428.5,922,425.68c0-2.42,1.25-4.14,2.9-4.14s2.87,1.67,2.87,4.14Z" transform="translate(-757 -409.39)"/><polygon class="cls-2" points="154.77 13.97 160.55 8.07 153.46 8.07 148.72 13.49 148.72 2.4 142.74 5.66 142.74 24.21 148.66 24.21 148.66 20.05 150.9 17.81 154.04 24.21 160.55 24.21 154.77 13.97 154.77 13.97"/></svg>